<mxfile host="65bd71144e">
    <diagram name="Page-1" id="1VTvxivwpSPhkvNJXZJ3">
        <mxGraphModel dx="1086" dy="751" grid="1" gridSize="10" guides="1" tooltips="1" connect="1" arrows="1" fold="1" page="1" pageScale="1" pageWidth="850" pageHeight="1100" background="#ffffff" math="0" shadow="0">
            <root>
                <mxCell id="sueAwKAaTNoMhfTQWeYg-0"/>
                <mxCell id="sueAwKAaTNoMhfTQWeYg-1" parent="sueAwKAaTNoMhfTQWeYg-0"/>
                <mxCell id="sueAwKAaTNoMhfTQWeYg-2" value="http://ics2o.mths.ca" style="swimlane;whiteSpace=wrap;html=1;strokeColor=#000000;strokeWidth=1;gradientColor=none;perimeterSpacing=0;glass=0;labelBackgroundColor=none;labelBorderColor=none;" parent="sueAwKAaTNoMhfTQWeYg-1" vertex="1">
                    <mxGeometry x="40" y="40" width="760" height="636.5" as="geometry"/>
                </mxCell>
                <mxCell id="sueAwKAaTNoMhfTQWeYg-3" value="" style="whiteSpace=wrap;html=1;glass=0;labelBackgroundColor=none;labelBorderColor=none;fontSize=22;fillColor=#f0a30a;strokeColor=#BD7000;fontColor=#000000;" parent="sueAwKAaTNoMhfTQWeYg-2" vertex="1">
                    <mxGeometry y="20" width="760" height="590" as="geometry"/>
                </mxCell>
                <mxCell id="sueAwKAaTNoMhfTQWeYg-4" value="" style="whiteSpace=wrap;html=1;fontSize=22;fillColor=#fa6800;strokeColor=#C73500;fontColor=#000000;" parent="sueAwKAaTNoMhfTQWeYg-2" vertex="1">
                    <mxGeometry y="20" width="760" height="50" as="geometry"/>
                </mxCell>
                <mxCell id="sueAwKAaTNoMhfTQWeYg-6" value="" style="whiteSpace=wrap;html=1;glass=0;labelBackgroundColor=none;labelBorderColor=none;fontSize=22;fontColor=#000000;fillColor=#6D6F6B;gradientColor=none;" parent="sueAwKAaTNoMhfTQWeYg-2" vertex="1">
                    <mxGeometry x="20" y="160.5" width="150" height="25" as="geometry"/>
                </mxCell>
                <mxCell id="sueAwKAaTNoMhfTQWeYg-8" value="&lt;span style=&quot;font-size: 24px;&quot;&gt;Put in three sides and this will calculate which type&lt;br&gt;of triangle those sides are.&lt;/span&gt;" style="text;html=1;align=left;verticalAlign=middle;resizable=0;points=[];autosize=1;fontSize=26;fontColor=#000000;" parent="sueAwKAaTNoMhfTQWeYg-2" vertex="1">
                    <mxGeometry x="10" y="62.5" width="560" height="80" as="geometry"/>
                </mxCell>
                <mxCell id="sueAwKAaTNoMhfTQWeYg-9" value="&lt;span style=&quot;font-size: 17px;&quot;&gt;Side 1&lt;/span&gt;" style="text;align=center;html=1;verticalAlign=middle;whiteSpace=wrap;rounded=0;fontColor=#000000;" parent="sueAwKAaTNoMhfTQWeYg-2" vertex="1">
                    <mxGeometry x="20" y="130.5" width="110" height="30" as="geometry"/>
                </mxCell>
                <mxCell id="sueAwKAaTNoMhfTQWeYg-13" value="Calculate" style="whiteSpace=wrap;html=1;fillColor=#999999;" parent="sueAwKAaTNoMhfTQWeYg-2" vertex="1">
                    <mxGeometry x="30" y="304" width="120" height="30" as="geometry"/>
                </mxCell>
                <mxCell id="sueAwKAaTNoMhfTQWeYg-14" value="You have not entered in the sides yet." style="text;strokeColor=none;align=left;fillColor=none;html=1;verticalAlign=middle;whiteSpace=wrap;rounded=0;fontSize=18;fontColor=#000000;" parent="sueAwKAaTNoMhfTQWeYg-2" vertex="1">
                    <mxGeometry x="10" y="345" width="530" height="30" as="geometry"/>
                </mxCell>
                <mxCell id="sueAwKAaTNoMhfTQWeYg-15" value="Triangle Type Calculator" style="text;html=1;align=center;verticalAlign=middle;resizable=0;points=[];autosize=1;fontSize=30;fontColor=#000000;" parent="sueAwKAaTNoMhfTQWeYg-2" vertex="1">
                    <mxGeometry x="210" y="20" width="350" height="50" as="geometry"/>
                </mxCell>
                <mxCell id="iGiyrYhKWCO6xkSs6Czd-1" value="" style="whiteSpace=wrap;html=1;glass=0;labelBackgroundColor=none;labelBorderColor=none;fontSize=22;fontColor=#000000;fillColor=#6D6F6B;gradientColor=none;" parent="sueAwKAaTNoMhfTQWeYg-1" vertex="1">
                    <mxGeometry x="60" y="254.5" width="150" height="25" as="geometry"/>
                </mxCell>
                <mxCell id="iGiyrYhKWCO6xkSs6Czd-2" value="&lt;font style=&quot;font-size: 17px;&quot;&gt;Side 2&lt;/font&gt;" style="text;align=center;html=1;verticalAlign=middle;whiteSpace=wrap;rounded=0;fontColor=#000000;" parent="sueAwKAaTNoMhfTQWeYg-1" vertex="1">
                    <mxGeometry x="60" y="224.5" width="110" height="30" as="geometry"/>
                </mxCell>
                <mxCell id="iGiyrYhKWCO6xkSs6Czd-3" value="" style="whiteSpace=wrap;html=1;glass=0;labelBackgroundColor=none;labelBorderColor=none;fontSize=22;fontColor=#000000;fillColor=#6D6F6B;gradientColor=none;" parent="sueAwKAaTNoMhfTQWeYg-1" vertex="1">
                    <mxGeometry x="60" y="307.5" width="150" height="25" as="geometry"/>
                </mxCell>
                <mxCell id="iGiyrYhKWCO6xkSs6Czd-4" value="&lt;font style=&quot;font-size: 17px;&quot;&gt;Side 3&lt;/font&gt;" style="text;align=center;html=1;verticalAlign=middle;whiteSpace=wrap;rounded=0;fontColor=#000000;" parent="sueAwKAaTNoMhfTQWeYg-1" vertex="1">
                    <mxGeometry x="60" y="277.5" width="110" height="30" as="geometry"/>
                </mxCell>
            </root>
        </mxGraphModel>
    </diagram>
    <diagram name="Page-2" id="1CpRqrAuMsRwDunZNa6s">
        <mxGraphModel dx="1086" dy="751" grid="1" gridSize="10" guides="1" tooltips="1" connect="1" arrows="1" fold="1" page="1" pageScale="1" pageWidth="850" pageHeight="1100" background="#ffffff" math="0" shadow="0">
            <root>
                <mxCell id="8K4goooB5FPV_CDe313u-0"/>
                <mxCell id="8K4goooB5FPV_CDe313u-1" parent="8K4goooB5FPV_CDe313u-0"/>
                <mxCell id="8K4goooB5FPV_CDe313u-2" value="http://ics2o.mths.ca" style="swimlane;whiteSpace=wrap;html=1;strokeColor=#000000;strokeWidth=1;gradientColor=none;perimeterSpacing=0;glass=0;labelBackgroundColor=none;labelBorderColor=none;" vertex="1" parent="8K4goooB5FPV_CDe313u-1">
                    <mxGeometry x="40" y="40" width="760" height="636.5" as="geometry"/>
                </mxCell>
                <mxCell id="8K4goooB5FPV_CDe313u-3" value="" style="whiteSpace=wrap;html=1;glass=0;labelBackgroundColor=none;labelBorderColor=none;fontSize=22;fillColor=#f0a30a;strokeColor=#BD7000;fontColor=#000000;" vertex="1" parent="8K4goooB5FPV_CDe313u-2">
                    <mxGeometry y="20" width="760" height="590" as="geometry"/>
                </mxCell>
                <mxCell id="8K4goooB5FPV_CDe313u-4" value="" style="whiteSpace=wrap;html=1;fontSize=22;fillColor=#fa6800;strokeColor=#C73500;fontColor=#000000;" vertex="1" parent="8K4goooB5FPV_CDe313u-2">
                    <mxGeometry y="20" width="760" height="50" as="geometry"/>
                </mxCell>
                <mxCell id="8K4goooB5FPV_CDe313u-5" value="12" style="whiteSpace=wrap;html=1;glass=0;labelBackgroundColor=none;labelBorderColor=none;fontSize=22;fontColor=#000000;fillColor=#6D6F6B;gradientColor=none;" vertex="1" parent="8K4goooB5FPV_CDe313u-2">
                    <mxGeometry x="20" y="160.5" width="150" height="25" as="geometry"/>
                </mxCell>
                <mxCell id="8K4goooB5FPV_CDe313u-6" value="&lt;span style=&quot;font-size: 24px;&quot;&gt;Put in three sides and this will calculate which type&lt;br&gt;of triangle those sides are.&lt;/span&gt;" style="text;html=1;align=left;verticalAlign=middle;resizable=0;points=[];autosize=1;fontSize=26;fontColor=#000000;" vertex="1" parent="8K4goooB5FPV_CDe313u-2">
                    <mxGeometry x="10" y="62.5" width="560" height="80" as="geometry"/>
                </mxCell>
                <mxCell id="8K4goooB5FPV_CDe313u-7" value="&lt;span style=&quot;font-size: 17px;&quot;&gt;Side 1&lt;/span&gt;" style="text;align=center;html=1;verticalAlign=middle;whiteSpace=wrap;rounded=0;fontColor=#000000;" vertex="1" parent="8K4goooB5FPV_CDe313u-2">
                    <mxGeometry x="20" y="130.5" width="110" height="30" as="geometry"/>
                </mxCell>
                <mxCell id="8K4goooB5FPV_CDe313u-8" value="Calculate" style="whiteSpace=wrap;html=1;fillColor=#999999;" vertex="1" parent="8K4goooB5FPV_CDe313u-2">
                    <mxGeometry x="30" y="304" width="120" height="30" as="geometry"/>
                </mxCell>
                <mxCell id="8K4goooB5FPV_CDe313u-9" value="This triangle is equilateral." style="text;strokeColor=none;align=left;fillColor=none;html=1;verticalAlign=middle;whiteSpace=wrap;rounded=0;fontSize=18;fontColor=#000000;" vertex="1" parent="8K4goooB5FPV_CDe313u-2">
                    <mxGeometry x="10" y="345" width="530" height="30" as="geometry"/>
                </mxCell>
                <mxCell id="8K4goooB5FPV_CDe313u-10" value="Triangle Type Calculator" style="text;html=1;align=center;verticalAlign=middle;resizable=0;points=[];autosize=1;fontSize=30;fontColor=#000000;" vertex="1" parent="8K4goooB5FPV_CDe313u-2">
                    <mxGeometry x="210" y="20" width="350" height="50" as="geometry"/>
                </mxCell>
                <mxCell id="8K4goooB5FPV_CDe313u-11" value="12" style="whiteSpace=wrap;html=1;glass=0;labelBackgroundColor=none;labelBorderColor=none;fontSize=22;fontColor=#000000;fillColor=#6D6F6B;gradientColor=none;" vertex="1" parent="8K4goooB5FPV_CDe313u-1">
                    <mxGeometry x="60" y="254.5" width="150" height="25" as="geometry"/>
                </mxCell>
                <mxCell id="8K4goooB5FPV_CDe313u-12" value="&lt;font style=&quot;font-size: 17px;&quot;&gt;Side 2&lt;/font&gt;" style="text;align=center;html=1;verticalAlign=middle;whiteSpace=wrap;rounded=0;fontColor=#000000;" vertex="1" parent="8K4goooB5FPV_CDe313u-1">
                    <mxGeometry x="60" y="224.5" width="110" height="30" as="geometry"/>
                </mxCell>
                <mxCell id="8K4goooB5FPV_CDe313u-13" value="12" style="whiteSpace=wrap;html=1;glass=0;labelBackgroundColor=none;labelBorderColor=none;fontSize=22;fontColor=#000000;fillColor=#6D6F6B;gradientColor=none;" vertex="1" parent="8K4goooB5FPV_CDe313u-1">
                    <mxGeometry x="60" y="307.5" width="150" height="25" as="geometry"/>
                </mxCell>
                <mxCell id="8K4goooB5FPV_CDe313u-14" value="&lt;font style=&quot;font-size: 17px;&quot;&gt;Side 3&lt;/font&gt;" style="text;align=center;html=1;verticalAlign=middle;whiteSpace=wrap;rounded=0;fontColor=#000000;" vertex="1" parent="8K4goooB5FPV_CDe313u-1">
                    <mxGeometry x="60" y="277.5" width="110" height="30" as="geometry"/>
                </mxCell>
            </root>
        </mxGraphModel>
    </diagram>
</mxfile>